<svg width="121" height="144" viewBox="0 0 121 144" fill="none" xmlns="http://www.w3.org/2000/svg">
<path d="M9.25606 79.4193C9.25597 75.5443 9.26043 71.6693 9.24887 67.7944C9.24774 67.419 9.32791 67.1871 9.67983 66.9707C11.7848 65.676 13.8703 64.3498 15.9543 63.0216C16.149 62.8975 16.3346 62.8596 16.5502 62.8596C22.9877 62.861 29.4251 62.8606 35.8626 62.8619C36.0535 62.8619 36.2333 62.8708 36.4136 62.9857C38.4975 64.3145 40.5853 65.6371 42.6801 66.9487C42.9405 67.1118 43.0399 67.2909 43.037 67.5994C43.0216 69.2379 43.0161 70.8769 43.0391 72.5152C43.0446 72.9101 42.9109 73.0043 42.5434 73.0035C38.2518 72.9943 33.9602 72.9927 29.6686 73.0048C29.2196 73.0061 29.0537 72.8763 29.0841 72.4106C29.1255 71.7771 29.0823 71.1385 29.1005 70.5029C29.1098 70.1763 28.9837 70.0548 28.6626 70.0562C27.0001 70.0632 25.3375 70.0691 23.6751 70.0533C23.2327 70.0491 23.2952 70.3254 23.2952 70.592C23.2951 73.7922 23.2954 76.9925 23.2955 80.1927C23.2955 82.8531 23.3066 85.5136 23.2844 88.1738C23.2807 88.6201 23.4174 88.7233 23.8411 88.7171C25.4066 88.694 26.9728 88.6979 28.5385 88.7146C28.9446 88.7189 29.1147 88.6326 29.106 88.1728C29.0757 86.5732 29.0753 84.9724 29.1068 83.3729C29.1164 82.8869 28.933 82.7835 28.4999 82.7958C27.65 82.8198 26.7986 82.7888 25.9485 82.8092C25.5663 82.8183 25.4071 82.7315 25.4118 82.3C25.4345 80.1797 25.4315 78.0588 25.412 75.9384C25.4083 75.5364 25.5233 75.4066 25.929 75.4073C31.4772 75.4172 37.0254 75.4158 42.5736 75.4078C42.9186 75.4073 43.0383 75.5023 43.0375 75.8661C43.026 81.0327 43.0254 86.1993 43.0384 91.3659C43.0393 91.72 42.8762 91.8706 42.6106 92.0317C40.4975 93.313 38.3887 94.6016 36.287 95.9015C36.0724 96.0342 35.8652 96.0638 35.6314 96.0638C29.2906 96.0624 22.9498 96.0627 16.609 96.0627C16.3974 96.0627 16.2036 96.05 16.0055 95.9232C13.8914 94.57 11.7732 93.2229 9.64433 91.8929C9.34514 91.706 9.24594 91.5093 9.2472 91.1598C9.26135 87.2463 9.25614 83.3328 9.25606 79.4193Z" fill="#1A2C54"/>
<path d="M64.03 62.8607C67.1039 62.8607 70.1778 62.8651 73.2516 62.8552C73.651 62.854 73.9854 62.9414 74.3323 63.1574C76.2992 64.3826 78.2782 65.5888 80.2664 66.7793C80.6274 66.9954 80.7583 67.2367 80.7508 67.6558C80.7245 69.1398 80.7308 70.6247 80.7478 72.109C80.7518 72.458 80.6543 72.5734 80.294 72.5725C75.8862 72.5617 71.4783 72.5626 67.0705 72.5711C66.7434 72.5717 66.6256 72.4724 66.6388 72.1419C66.6611 71.5837 66.635 71.0236 66.6502 70.4649C66.6582 70.1695 66.5563 70.0539 66.2497 70.0561C64.7998 70.0664 63.3498 70.0684 61.9 70.0539C61.5042 70.05 61.4107 70.2232 61.4217 70.5812C61.443 71.2746 61.4565 71.9707 61.4179 72.6626C61.3949 73.0756 61.5732 73.2437 61.9286 73.364C64.8332 74.3467 67.7352 75.3372 70.6361 76.3307C73.8654 77.4366 77.0913 78.5523 80.3233 79.6503C80.6332 79.7555 80.7467 79.9046 80.7459 80.2292C80.7373 83.9308 80.7371 87.6324 80.7481 91.334C80.749 91.6489 80.6288 91.8186 80.3727 91.9765C78.2523 93.2833 76.1369 94.5984 74.0272 95.9224C73.8102 96.0586 73.5946 96.0627 73.3641 96.0627C67.197 96.0628 61.0299 96.0628 54.8629 96.0624C54.6523 96.0624 54.4563 96.0592 54.2568 95.9319C52.092 94.5501 49.9239 93.1734 47.7444 91.8149C47.3886 91.5931 47.26 91.3428 47.2655 90.9267C47.2882 89.2111 47.2878 87.4949 47.2661 85.7793C47.2606 85.3473 47.3509 85.1798 47.8305 85.1818C52.1803 85.2002 56.5301 85.1979 60.8799 85.1842C61.305 85.1828 61.4569 85.2901 61.4382 85.7332C61.4033 86.5607 61.4433 87.3911 61.4217 88.2196C61.4129 88.5557 61.4918 88.7149 61.8602 88.7119C63.3294 88.7001 64.7987 88.701 66.2679 88.7114C66.583 88.7136 66.6547 88.5823 66.6509 88.2937C66.637 87.2528 66.6147 86.2103 66.659 85.1711C66.6801 84.6779 66.5057 84.4636 66.0547 84.3123C63.1477 83.3374 60.248 82.3405 57.3468 81.3485C54.19 80.269 51.0371 79.1781 47.8745 78.1156C47.4136 77.9608 47.2585 77.7454 47.2624 77.2532C47.2871 74.1109 47.283 70.9683 47.2652 67.8258C47.2629 67.427 47.3868 67.1941 47.7205 66.9843C49.7967 65.6792 51.865 64.3617 53.9238 63.0296C54.1784 62.8649 54.4253 62.8614 54.6924 62.8613C57.805 62.8605 60.9175 62.8608 64.03 62.8607Z" fill="#1A2C54"/>
<path d="M97.9909 62.8607C102.881 62.8607 107.771 62.8667 112.661 62.8512C113.134 62.8497 113.311 62.9175 113.304 63.4636C113.268 66.2772 113.273 69.0917 113.301 71.9055C113.306 72.4143 113.136 72.5114 112.676 72.5078C110.28 72.4892 107.883 72.5128 105.486 72.4884C104.991 72.4834 104.873 72.642 104.874 73.114C104.888 80.6119 104.879 88.1098 104.899 95.6077C104.9 96.0266 104.769 96.069 104.421 96.0683C100.072 96.0595 95.7231 96.0573 91.3743 96.0716C90.9793 96.0729 90.8656 95.9895 90.8664 95.5735C90.8813 88.1334 90.8773 80.6933 90.8772 73.2532C90.8772 72.4974 90.8771 72.4988 90.1338 72.4989C87.8144 72.4996 85.495 72.4909 83.1757 72.5062C82.7208 72.5092 82.5365 72.413 82.5419 71.8956C82.5713 69.0819 82.5683 66.2676 82.5454 63.4537C82.5415 62.9768 82.6615 62.8473 83.1469 62.8491C88.0948 62.8679 93.0428 62.8606 97.9909 62.8607Z" fill="#1A2C54"/>
<path d="M28.3136 99.0667C28.9567 100.352 29.5776 101.649 30.2917 102.894C32.5342 106.8 35.5821 109.983 39.2355 112.599C43.296 115.507 47.7338 117.538 52.6936 118.391C56.0491 118.968 59.3231 118.943 62.5408 117.642C64.585 116.816 66.2742 115.557 67.6266 113.861C69.4508 111.574 70.151 108.896 70.1754 104.987C70.2199 103.551 69.526 101.315 68.7478 99.0667H28.3136ZM63.7936 113.056C62.6605 114.27 61.3095 115.055 59.7219 115.464C57.3896 116.064 55.0552 115.913 52.7221 115.456C49.9485 114.914 47.3621 113.876 44.901 112.51C44.6261 112.357 44.3839 112.145 44.127 111.96C44.1486 111.912 44.1709 111.864 44.1932 111.815C44.5975 111.948 45.0159 112.05 45.4028 112.22C48.2579 113.478 51.2688 114.009 54.3612 114.016C56.3929 114.02 58.419 113.749 60.276 112.835C62.5874 111.698 64.537 110.14 65.7947 107.833C65.8385 107.753 65.9039 107.685 66.1232 107.592C66.1684 107.818 66.3062 108.074 66.2436 108.266C65.6812 109.988 65.0771 111.68 63.7936 113.056Z" fill="url(#paint0_linear_8_610)"/>
<path d="M74.407 99.0667C74.9492 101.377 75.0668 103.724 74.9067 106.082C74.6666 109.62 73.649 112.923 71.7398 115.934C71.4169 116.443 71.0939 116.951 70.6798 117.602C71.0257 117.582 71.1775 117.589 71.3215 117.562C73.5752 117.128 75.7259 116.355 77.7555 115.325C81.8738 113.235 85.4965 110.511 88.4142 106.872C90.3415 104.468 91.8449 101.837 93.136 99.0667H74.407Z" fill="url(#paint1_linear_8_610)"/>
<path d="M57.8731 59.4649H92.3509C91.762 58.0954 91.1997 56.7121 90.5217 55.3877C88.4379 51.321 86.0533 47.4258 83.5874 43.5791C80.6857 39.0515 77.7868 34.5218 74.931 29.9658C72.8005 26.5668 70.9053 23.0359 69.1889 19.4086C67.4718 15.7805 65.8703 12.1053 64.7456 8.24821C64.0509 5.86538 63.4885 3.44368 62.8573 1.04141C62.8058 0.843592 62.6819 0.665209 62.5427 0.376465C62.4216 0.584694 62.3603 0.657574 62.3332 0.741559C61.8947 2.09574 61.4165 3.43951 61.0337 4.80966C60.0997 8.15034 59.1064 11.4792 58.3318 14.8574C57.4625 18.6472 56.7115 22.473 56.401 26.3593C56.0885 30.276 55.6807 34.1963 55.6333 38.1193C55.5874 41.9264 55.8477 45.7467 56.1567 49.5462C56.4296 52.8946 57.1075 56.1901 57.8731 59.4649Z" fill="url(#paint2_linear_8_610)"/>
<path d="M53.8613 59.465C53.6616 58.5627 53.4576 57.6617 53.2801 56.7552C52.8953 54.7916 52.4804 52.8308 52.1853 50.8533C51.655 47.2989 51.4796 43.7104 51.6744 40.1275C51.8471 36.9568 52.0928 33.7772 52.5681 30.6413C52.9795 27.928 53.7562 25.2689 54.3757 22.587C54.4982 22.0546 54.6395 21.5264 54.7724 20.9961C54.7084 20.9607 54.645 20.9253 54.581 20.8899C54.2476 21.2952 53.9087 21.6957 53.5815 22.1066C51.7447 24.4131 49.8787 26.6974 48.0879 29.0386C46.7063 30.8453 45.3964 32.7083 44.1004 34.5775C42.4091 37.0165 40.7241 39.4618 39.1086 41.9509C37.5252 44.392 35.9696 46.856 34.517 49.3763C33.1333 51.7786 31.8728 54.2523 30.6089 56.7212C30.1537 57.6104 29.7876 58.5446 29.3929 59.465H53.8613Z" fill="url(#paint3_linear_8_610)"/>
<path d="M78.8664 31.8183C80.3169 34.07 81.7813 36.314 83.2185 38.574C84.3259 40.3161 85.5133 41.9681 87.0835 43.3146C92.9307 47.4785 97.656 53.0535 100.973 59.4649H113.989C114.51 58.9887 115.037 58.5202 115.55 58.0364C117.135 56.5399 118.829 55.1601 120.366 53.6116C120.624 53.352 120.834 53.0715 120.615 52.7571C120.173 52.1192 119.877 51.405 119.47 50.7512C117.556 47.6743 115.831 44.487 114.028 41.3462C113.755 40.8721 113.485 40.7298 112.96 40.904C109.663 41.9972 106.358 43.0634 103.061 44.158C102.726 44.269 102.528 44.2066 102.311 43.956C100.615 42.0007 98.7661 40.194 96.8709 38.4331C96.575 38.1589 96.0927 37.9729 95.9765 37.6466C95.8442 37.2746 96.3377 36.9324 96.4498 36.5271C96.4908 36.3792 96.5479 36.2356 96.5959 36.0891C97.008 34.8474 97.4332 33.6105 97.8265 32.3632C98.3297 30.7661 98.7988 29.1592 99.2986 27.5614C99.4301 27.1408 99.3334 26.8521 99.0062 26.5474C98.029 25.6388 96.8117 25.1252 95.6835 24.4672C93.0504 22.9304 90.3979 21.427 87.783 19.8604C87.2269 19.5273 86.9554 19.5648 86.5462 20.0617C85.5892 21.2202 84.5507 22.3113 83.5547 23.4392C81.8571 25.3618 80.154 27.2803 78.4815 29.2245C77.7534 30.0706 77.7861 30.097 78.3791 31.0319C78.5448 31.2922 78.6993 31.5594 78.8664 31.8183Z" fill="#8D8D8D"/>
<path d="M20.5766 59.4648C23.795 53.2353 28.3761 47.8179 33.9937 43.695C34.034 43.6637 34.0737 43.6318 34.1141 43.6006C34.2512 43.4937 34.396 43.3937 34.5435 43.2972C34.998 42.9738 35.4588 42.6587 35.9258 42.3519C36.0991 42.1985 36.2557 42.0291 36.3859 41.8334C37.155 40.6812 37.9603 39.5484 38.6848 38.3664C39.6216 36.8366 40.6671 35.3804 41.6735 33.8985C42.3229 32.9413 42.9897 31.996 43.6349 31.0367C43.9265 30.6043 43.9522 30.2212 43.5806 29.745C40.8585 26.262 37.7563 23.1095 34.8999 19.7445C34.7154 19.5265 34.4426 19.3259 34.151 19.5522C33.613 19.9694 33.0026 20.2526 32.4172 20.5857C29.0826 22.4868 25.7591 24.4067 22.4322 26.3217C22.0132 26.5626 21.7877 26.8603 22.0925 27.3545C22.2122 27.5475 22.2714 27.78 22.3452 27.998C23.3133 30.8424 24.2683 33.6909 25.249 36.5312C25.6707 37.7528 25.7014 37.7549 24.6754 38.5829C22.8352 40.069 21.2671 41.8271 19.66 43.5457C18.9786 44.2752 19.0175 44.2669 18.1037 43.9282C15.028 42.7899 11.8952 41.8181 8.76664 40.8332C8.14858 40.6389 7.88827 40.8103 7.57715 41.3121C5.30118 44.9832 3.28692 48.807 1.02905 52.4878C0.821635 52.8258 0.87314 53.043 1.16477 53.3262C3.33216 55.4307 5.61021 57.4152 7.82772 59.4648H20.5766Z" fill="#8D8D8D"/>
<path d="M115.55 100.495C115.037 100.011 114.51 99.5428 113.989 99.0667H102.489C95.4176 114.81 79.639 125.818 61.2211 125.818C42.8031 125.818 27.0245 114.81 19.953 99.0667H7.82771C5.61021 101.116 3.33216 103.101 1.16477 105.205C0.87314 105.488 0.821635 105.706 1.02905 106.044C3.28692 109.724 5.30118 113.548 7.57715 117.219C7.88827 117.721 8.14858 117.893 8.76664 117.698C11.8952 116.713 15.028 115.742 18.1037 114.603C19.0175 114.265 18.9786 114.256 19.66 114.986C21.2671 116.704 22.8352 118.462 24.6754 119.949C25.7014 120.777 25.6707 120.779 25.249 122C24.2683 124.841 23.3133 127.689 22.3452 130.533C22.2714 130.751 22.2122 130.984 22.0925 131.177C21.7877 131.671 22.0132 131.969 22.4322 132.21C25.7591 134.125 29.0826 136.045 32.4172 137.946C33.0025 138.279 33.613 138.562 34.151 138.979C34.4426 139.206 34.7154 139.005 34.8999 138.787C37.2378 136.033 39.6815 133.367 42.0055 130.601C42.1913 130.452 42.3632 130.316 42.6458 130.413C44.9301 131.201 47.291 131.722 49.6227 132.335C50.7043 132.62 51.188 133.159 51.3926 134.216C51.9279 136.989 52.406 139.774 53.1313 142.509C53.4584 143.743 53.4278 143.753 54.7057 143.751C58.8616 143.744 63.0175 143.731 67.1734 143.734C67.5931 143.735 67.829 143.66 67.9529 143.19C68.0789 142.71 68.2195 142.232 68.3406 141.749C68.7888 139.959 69.2071 138.162 69.5363 136.344C69.7486 135.172 69.9275 133.99 70.2658 132.843C70.3305 132.625 70.3674 132.384 70.6966 132.403C72.1206 132.489 73.4173 131.893 74.7731 131.618C75.9612 131.377 77.0999 130.927 78.2943 130.69C78.9109 130.567 79.4385 130.634 79.8819 131.113C80.3795 131.651 80.9308 132.145 81.3846 132.717C81.8718 133.331 82.4432 133.865 82.9778 134.434C83.1713 134.653 83.362 134.874 83.5548 135.092C84.5508 136.22 85.5892 137.311 86.5462 138.47C86.9555 138.967 87.2269 139.004 87.783 138.671C90.398 137.104 93.0505 135.601 95.6835 134.064C96.8117 133.406 98.0291 132.893 99.0063 131.984C99.3334 131.679 99.4302 131.391 99.2986 130.97C98.7989 129.372 98.3298 127.765 97.8265 126.168C97.4333 124.921 97.008 123.684 96.596 122.442C96.548 122.296 96.4909 122.152 96.4498 122.004C96.3378 121.599 95.8443 121.257 95.9765 120.885C96.0928 120.559 96.5751 120.373 96.8709 120.098C98.7661 118.338 100.615 116.531 102.311 114.576C102.528 114.325 102.726 114.262 103.061 114.374C106.358 115.468 109.663 116.534 112.96 117.627C113.485 117.802 113.756 117.659 114.028 117.185C115.831 114.045 117.556 110.857 119.47 107.78C119.877 107.126 120.173 106.412 120.615 105.774C120.834 105.46 120.624 105.18 120.366 104.92C118.829 103.371 117.135 101.992 115.55 100.495Z" fill="#8D8D8D"/>
<defs>
<linearGradient id="paint0_linear_8_610" x1="49.2455" y1="118.751" x2="49.2455" y2="99.0667" gradientUnits="userSpaceOnUse">
<stop stop-color="#012B5D"/>
<stop offset="1" stop-color="#006394"/>
</linearGradient>
<linearGradient id="paint1_linear_8_610" x1="81.9079" y1="99.0667" x2="81.9079" y2="117.602" gradientUnits="userSpaceOnUse">
<stop stop-color="#012B5D"/>
<stop offset="0.397586" stop-color="#013E70"/>
<stop offset="1" stop-color="#006394"/>
</linearGradient>
<linearGradient id="paint2_linear_8_610" x1="73.9895" y1="0.376465" x2="73.9895" y2="59.4649" gradientUnits="userSpaceOnUse">
<stop stop-color="#012B5D"/>
<stop offset="0.397586" stop-color="#013E70"/>
<stop offset="1" stop-color="#006394"/>
</linearGradient>
<linearGradient id="paint3_linear_8_610" x1="42.0827" y1="59.465" x2="42.0827" y2="20.8899" gradientUnits="userSpaceOnUse">
<stop stop-color="#012B5D"/>
<stop offset="1" stop-color="#006394"/>
</linearGradient>
</defs>
</svg>
